<mxfile host="app.diagrams.net" modified="2021-12-10T06:46:58.096Z" agent="5.0 (Windows NT 10.0; Win64; x64) AppleWebKit/537.36 (KHTML, like Gecko) Chrome/96.0.4664.93 Safari/537.36" etag="4OuLfw2a5d__axwY0hM4" version="15.7.3" type="github">
  <diagram id="VeFhfbLzMDaiwdY7gdsf" name="Page-1">
    <mxGraphModel dx="918" dy="1304" grid="1" gridSize="10" guides="1" tooltips="1" connect="1" arrows="1" fold="1" page="1" pageScale="1" pageWidth="850" pageHeight="1100" math="0" shadow="0">
      <root>
        <mxCell id="0" />
        <mxCell id="1" parent="0" />
        <mxCell id="kwvuJmF1KQym8zNV791_-9" style="edgeStyle=orthogonalEdgeStyle;rounded=0;orthogonalLoop=1;jettySize=auto;html=1;exitX=0;exitY=0.25;exitDx=0;exitDy=0;entryX=0.5;entryY=0;entryDx=0;entryDy=0;" edge="1" parent="1" source="kwvuJmF1KQym8zNV791_-1" target="kwvuJmF1KQym8zNV791_-3">
          <mxGeometry relative="1" as="geometry" />
        </mxCell>
        <mxCell id="kwvuJmF1KQym8zNV791_-10" style="edgeStyle=orthogonalEdgeStyle;rounded=0;orthogonalLoop=1;jettySize=auto;html=1;exitX=0;exitY=0.5;exitDx=0;exitDy=0;entryX=0.5;entryY=0;entryDx=0;entryDy=0;" edge="1" parent="1" source="kwvuJmF1KQym8zNV791_-1" target="kwvuJmF1KQym8zNV791_-4">
          <mxGeometry relative="1" as="geometry" />
        </mxCell>
        <mxCell id="kwvuJmF1KQym8zNV791_-11" style="edgeStyle=orthogonalEdgeStyle;rounded=0;orthogonalLoop=1;jettySize=auto;html=1;exitX=0.25;exitY=1;exitDx=0;exitDy=0;" edge="1" parent="1" source="kwvuJmF1KQym8zNV791_-1" target="kwvuJmF1KQym8zNV791_-5">
          <mxGeometry relative="1" as="geometry" />
        </mxCell>
        <mxCell id="kwvuJmF1KQym8zNV791_-12" style="edgeStyle=orthogonalEdgeStyle;rounded=0;orthogonalLoop=1;jettySize=auto;html=1;exitX=0.75;exitY=1;exitDx=0;exitDy=0;entryX=0.5;entryY=0;entryDx=0;entryDy=0;" edge="1" parent="1" source="kwvuJmF1KQym8zNV791_-1" target="kwvuJmF1KQym8zNV791_-6">
          <mxGeometry relative="1" as="geometry" />
        </mxCell>
        <mxCell id="kwvuJmF1KQym8zNV791_-13" style="edgeStyle=orthogonalEdgeStyle;rounded=0;orthogonalLoop=1;jettySize=auto;html=1;exitX=1;exitY=0.5;exitDx=0;exitDy=0;entryX=0.5;entryY=0;entryDx=0;entryDy=0;" edge="1" parent="1" source="kwvuJmF1KQym8zNV791_-1" target="kwvuJmF1KQym8zNV791_-7">
          <mxGeometry relative="1" as="geometry" />
        </mxCell>
        <mxCell id="kwvuJmF1KQym8zNV791_-14" style="edgeStyle=orthogonalEdgeStyle;rounded=0;orthogonalLoop=1;jettySize=auto;html=1;exitX=1;exitY=0.25;exitDx=0;exitDy=0;entryX=0.5;entryY=0;entryDx=0;entryDy=0;" edge="1" parent="1" source="kwvuJmF1KQym8zNV791_-1" target="kwvuJmF1KQym8zNV791_-8">
          <mxGeometry relative="1" as="geometry" />
        </mxCell>
        <mxCell id="kwvuJmF1KQym8zNV791_-1" value="Server" style="rounded=1;whiteSpace=wrap;html=1;" vertex="1" parent="1">
          <mxGeometry x="700" y="90" width="370" height="140" as="geometry" />
        </mxCell>
        <mxCell id="kwvuJmF1KQym8zNV791_-22" style="edgeStyle=orthogonalEdgeStyle;rounded=0;orthogonalLoop=1;jettySize=auto;html=1;exitX=0.5;exitY=1;exitDx=0;exitDy=0;entryX=0.5;entryY=0;entryDx=0;entryDy=0;" edge="1" parent="1" source="kwvuJmF1KQym8zNV791_-3" target="kwvuJmF1KQym8zNV791_-15">
          <mxGeometry relative="1" as="geometry" />
        </mxCell>
        <mxCell id="kwvuJmF1KQym8zNV791_-3" value="Database&lt;span style=&quot;color: rgba(0 , 0 , 0 , 0) ; font-family: monospace ; font-size: 0px&quot;&gt;%3CmxGraphModel%3E%3Croot%3E%3CmxCell%20id%3D%220%22%2F%3E%3CmxCell%20id%3D%221%22%20parent%3D%220%22%2F%3E%3CmxCell%20id%3D%222%22%20value%3D%22Daily%22%20style%3D%22rounded%3D1%3BwhiteSpace%3Dwrap%3Bhtml%3D1%3B%22%20vertex%3D%221%22%20parent%3D%221%22%3E%3CmxGeometry%20x%3D%22920%22%20y%3D%22690%22%20width%3D%2270%22%20height%3D%2250%22%20as%3D%22geometry%22%2F%3E%3C%2FmxCell%3E%3C%2Froot%3E%3C%2FmxGraphModel%3E&lt;/span&gt;" style="rounded=1;whiteSpace=wrap;html=1;" vertex="1" parent="1">
          <mxGeometry x="350" y="420" width="120" height="60" as="geometry" />
        </mxCell>
        <mxCell id="kwvuJmF1KQym8zNV791_-27" style="edgeStyle=orthogonalEdgeStyle;rounded=0;orthogonalLoop=1;jettySize=auto;html=1;exitX=0.5;exitY=1;exitDx=0;exitDy=0;entryX=0.5;entryY=0;entryDx=0;entryDy=0;" edge="1" parent="1" source="kwvuJmF1KQym8zNV791_-4" target="kwvuJmF1KQym8zNV791_-26">
          <mxGeometry relative="1" as="geometry" />
        </mxCell>
        <mxCell id="kwvuJmF1KQym8zNV791_-4" value="Directives" style="rounded=1;whiteSpace=wrap;html=1;" vertex="1" parent="1">
          <mxGeometry x="570" y="320" width="120" height="60" as="geometry" />
        </mxCell>
        <mxCell id="kwvuJmF1KQym8zNV791_-29" style="edgeStyle=orthogonalEdgeStyle;rounded=0;orthogonalLoop=1;jettySize=auto;html=1;exitX=0.5;exitY=1;exitDx=0;exitDy=0;entryX=0.5;entryY=0;entryDx=0;entryDy=0;" edge="1" parent="1" source="kwvuJmF1KQym8zNV791_-5" target="kwvuJmF1KQym8zNV791_-28">
          <mxGeometry relative="1" as="geometry" />
        </mxCell>
        <mxCell id="kwvuJmF1KQym8zNV791_-5" value="Middleware" style="rounded=1;whiteSpace=wrap;html=1;" vertex="1" parent="1">
          <mxGeometry x="760" y="320" width="120" height="60" as="geometry" />
        </mxCell>
        <mxCell id="kwvuJmF1KQym8zNV791_-32" style="edgeStyle=orthogonalEdgeStyle;rounded=0;orthogonalLoop=1;jettySize=auto;html=1;exitX=0;exitY=0.5;exitDx=0;exitDy=0;entryX=0.5;entryY=0;entryDx=0;entryDy=0;" edge="1" parent="1" source="kwvuJmF1KQym8zNV791_-6" target="kwvuJmF1KQym8zNV791_-30">
          <mxGeometry relative="1" as="geometry" />
        </mxCell>
        <mxCell id="kwvuJmF1KQym8zNV791_-33" style="edgeStyle=orthogonalEdgeStyle;rounded=0;orthogonalLoop=1;jettySize=auto;html=1;exitX=1;exitY=0.5;exitDx=0;exitDy=0;entryX=0.5;entryY=0;entryDx=0;entryDy=0;" edge="1" parent="1" source="kwvuJmF1KQym8zNV791_-6" target="kwvuJmF1KQym8zNV791_-31">
          <mxGeometry relative="1" as="geometry" />
        </mxCell>
        <mxCell id="kwvuJmF1KQym8zNV791_-6" value="Resolvers" style="rounded=1;whiteSpace=wrap;html=1;" vertex="1" parent="1">
          <mxGeometry x="940" y="540" width="120" height="60" as="geometry" />
        </mxCell>
        <mxCell id="kwvuJmF1KQym8zNV791_-37" style="edgeStyle=orthogonalEdgeStyle;rounded=0;orthogonalLoop=1;jettySize=auto;html=1;exitX=0;exitY=0.5;exitDx=0;exitDy=0;entryX=0.5;entryY=0;entryDx=0;entryDy=0;" edge="1" parent="1" source="kwvuJmF1KQym8zNV791_-7" target="kwvuJmF1KQym8zNV791_-34">
          <mxGeometry relative="1" as="geometry" />
        </mxCell>
        <mxCell id="kwvuJmF1KQym8zNV791_-38" style="edgeStyle=orthogonalEdgeStyle;rounded=0;orthogonalLoop=1;jettySize=auto;html=1;exitX=0.5;exitY=1;exitDx=0;exitDy=0;entryX=0.5;entryY=0;entryDx=0;entryDy=0;" edge="1" parent="1" source="kwvuJmF1KQym8zNV791_-7" target="kwvuJmF1KQym8zNV791_-35">
          <mxGeometry relative="1" as="geometry" />
        </mxCell>
        <mxCell id="kwvuJmF1KQym8zNV791_-39" style="edgeStyle=orthogonalEdgeStyle;rounded=0;orthogonalLoop=1;jettySize=auto;html=1;exitX=1;exitY=0.5;exitDx=0;exitDy=0;entryX=0.5;entryY=0;entryDx=0;entryDy=0;" edge="1" parent="1" source="kwvuJmF1KQym8zNV791_-7" target="kwvuJmF1KQym8zNV791_-36">
          <mxGeometry relative="1" as="geometry" />
        </mxCell>
        <mxCell id="kwvuJmF1KQym8zNV791_-7" value="typeDefs" style="rounded=1;whiteSpace=wrap;html=1;" vertex="1" parent="1">
          <mxGeometry x="1190" y="330" width="120" height="60" as="geometry" />
        </mxCell>
        <mxCell id="kwvuJmF1KQym8zNV791_-25" style="edgeStyle=orthogonalEdgeStyle;rounded=0;orthogonalLoop=1;jettySize=auto;html=1;exitX=0.5;exitY=1;exitDx=0;exitDy=0;entryX=0.5;entryY=0;entryDx=0;entryDy=0;" edge="1" parent="1" source="kwvuJmF1KQym8zNV791_-8" target="kwvuJmF1KQym8zNV791_-24">
          <mxGeometry relative="1" as="geometry" />
        </mxCell>
        <mxCell id="kwvuJmF1KQym8zNV791_-8" value="utils" style="rounded=1;whiteSpace=wrap;html=1;" vertex="1" parent="1">
          <mxGeometry x="1460" y="320" width="120" height="60" as="geometry" />
        </mxCell>
        <mxCell id="kwvuJmF1KQym8zNV791_-20" style="edgeStyle=orthogonalEdgeStyle;rounded=0;orthogonalLoop=1;jettySize=auto;html=1;exitX=0;exitY=0.5;exitDx=0;exitDy=0;" edge="1" parent="1" source="kwvuJmF1KQym8zNV791_-15" target="kwvuJmF1KQym8zNV791_-18">
          <mxGeometry relative="1" as="geometry" />
        </mxCell>
        <mxCell id="kwvuJmF1KQym8zNV791_-21" style="edgeStyle=orthogonalEdgeStyle;rounded=0;orthogonalLoop=1;jettySize=auto;html=1;exitX=1;exitY=0.5;exitDx=0;exitDy=0;entryX=0.5;entryY=0;entryDx=0;entryDy=0;" edge="1" parent="1" source="kwvuJmF1KQym8zNV791_-15" target="kwvuJmF1KQym8zNV791_-19">
          <mxGeometry relative="1" as="geometry" />
        </mxCell>
        <mxCell id="kwvuJmF1KQym8zNV791_-15" value="Models" style="rounded=1;whiteSpace=wrap;html=1;" vertex="1" parent="1">
          <mxGeometry x="350" y="560" width="120" height="60" as="geometry" />
        </mxCell>
        <mxCell id="kwvuJmF1KQym8zNV791_-18" value="Task.js" style="rounded=1;whiteSpace=wrap;html=1;" vertex="1" parent="1">
          <mxGeometry x="240" y="680" width="120" height="60" as="geometry" />
        </mxCell>
        <mxCell id="kwvuJmF1KQym8zNV791_-19" value="User.js" style="rounded=1;whiteSpace=wrap;html=1;" vertex="1" parent="1">
          <mxGeometry x="460" y="680" width="120" height="60" as="geometry" />
        </mxCell>
        <mxCell id="kwvuJmF1KQym8zNV791_-24" value="Userfunctions.js" style="rounded=1;whiteSpace=wrap;html=1;" vertex="1" parent="1">
          <mxGeometry x="1460" y="480" width="120" height="60" as="geometry" />
        </mxCell>
        <mxCell id="kwvuJmF1KQym8zNV791_-26" value="auth.directive.js" style="rounded=1;whiteSpace=wrap;html=1;" vertex="1" parent="1">
          <mxGeometry x="570" y="430" width="120" height="60" as="geometry" />
        </mxCell>
        <mxCell id="kwvuJmF1KQym8zNV791_-28" value="auth.js" style="rounded=1;whiteSpace=wrap;html=1;" vertex="1" parent="1">
          <mxGeometry x="760" y="430" width="120" height="60" as="geometry" />
        </mxCell>
        <mxCell id="kwvuJmF1KQym8zNV791_-30" value="task.js" style="rounded=1;whiteSpace=wrap;html=1;" vertex="1" parent="1">
          <mxGeometry x="810" y="650" width="120" height="60" as="geometry" />
        </mxCell>
        <mxCell id="kwvuJmF1KQym8zNV791_-31" value="user.js" style="rounded=1;whiteSpace=wrap;html=1;" vertex="1" parent="1">
          <mxGeometry x="1060" y="650" width="120" height="60" as="geometry" />
        </mxCell>
        <mxCell id="kwvuJmF1KQym8zNV791_-34" value="baseDefs.js" style="rounded=1;whiteSpace=wrap;html=1;" vertex="1" parent="1">
          <mxGeometry x="1060" y="440" width="120" height="60" as="geometry" />
        </mxCell>
        <mxCell id="kwvuJmF1KQym8zNV791_-35" value="task.js" style="rounded=1;whiteSpace=wrap;html=1;" vertex="1" parent="1">
          <mxGeometry x="1190" y="440" width="120" height="60" as="geometry" />
        </mxCell>
        <mxCell id="kwvuJmF1KQym8zNV791_-36" value="user.js" style="rounded=1;whiteSpace=wrap;html=1;" vertex="1" parent="1">
          <mxGeometry x="1330" y="440" width="120" height="60" as="geometry" />
        </mxCell>
      </root>
    </mxGraphModel>
  </diagram>
</mxfile>
